# xmcd
#
# Track frame offsets: 
#        150
#        13248
#        27420
#        38972
#        49674
#        60376
#        74199
#        85416
#        99070
#        113324
#        126728
#        139589
#        151684
#        164308
#        177210
#        187452
#        200425
#        213468
#        225925
#        239609
#        249725
#        262363
#        274987
#        288058
#        298940
#
# Disc length: 4134 seconds
#
# Revision: 0
# Processed by: cddbd v1.5.2PL0 Copyright (c) Steve Scherf et al.
# Submitted via: ExactAudioCopy v1.0b3
#
DISCID=7e102419
DTITLE=Various Artist - Los Angeles Rhythm and Blues CD 2
DYEAR=1900
DGENRE=R&B
TTITLE0=Chuck Norris and his Guitar - What's Good for one is Good for al
TTITLE0=l
TTITLE1=Charles Brown - Black Night
TTITLE2=T-Bone Walker - The Hustle is on
TTITLE3=Lloyd Glenn's Combo - Chica Boo
TTITLE4=Calvin Boze and His All-Stars - Safronia B
TTITLE5=Chuck Norris - Kind a Sick Kind of Worrier
TTITLE6=Peppermint Harris with Maxwell Davis and His All-Stars - I Got L
TTITLE6=oaded
TTITLE7=Pee Wee Crayton - When It Rains, It Pours
TTITLE8=Ray Charles - Kissa Me Baby
TTITLE9=Ernie Andrews with Maxwell Davis Orchestra - Pork Chops and Mu
TTITLE9=stard Greens
TTITLE10=Frankie Ervin - High School Baby
TTITLE11=Pee Wee Crayton - Daybreak
TTITLE12=Amos Milburn - Let me Go Home Whiskey
TTITLE13=J. D. Edwards - West Coast Blues
TTITLE14=Johnny Otis and His Orchestra - The Candles Burning Low
TTITLE15=Earl Brown with The Red Callender Combo - Lovin' a Married Wo
TTITLE15=man
TTITLE16=Johnny Otis and His Orchetra - Brownskin Butterball
TTITLE17=Mel Walker - Unlucky Man
TTITLE18=Amos Milburn - Good Good Whiskey
TTITLE19=Ike Carpenter Orch - Pachunko Hop
TTITLE20=Mel Walker - Feelin' Mighty Lonesome
TTITLE21=Joe Liggins - They Were Doin' the Mambo
TTITLE22=Joe Liggins - Yeah Yeah Yeah
TTITLE23=Jimmy Liggins - I Ain't Drunk
TTITLE24=Jimmy Liggins - No More Alcohol
EXTD=
EXTT0=
EXTT1=
EXTT2=
EXTT3=
EXTT4=
EXTT5=
EXTT6=
EXTT7=
EXTT8=
EXTT9=
EXTT10=
EXTT11=
EXTT12=
EXTT13=
EXTT14=
EXTT15=
EXTT16=
EXTT17=
EXTT18=
EXTT19=
EXTT20=
EXTT21=
EXTT22=
EXTT23=
EXTT24=
PLAYORDER=
